# This file uses centimeters as units for non-parametric coordinates.

mtllib rock_03.mtl
g default
v -68.828259 0.000000 113.098157
v -27.451895 165.980750 29.052029
v 40.799664 0.000000 116.374536
v 31.960831 110.502295 23.726926
v 59.364081 0.000000 -103.018677
v 22.322012 142.649939 -59.557678
v -49.314337 0.000000 -140.610242
v -49.318277 120.098462 -45.089191
v -30.517035 63.368872 96.653174
v -64.814886 68.307159 50.609647
v 3.378567 147.088623 48.620758
v 24.784093 52.160388 117.732397
v -42.898221 0.000000 157.277393
v 58.342047 62.824597 3.525431
v 39.829556 181.017749 5.003874
v 17.406953 43.617383 -76.800311
v 51.332867 0.000000 -1.929923
v -15.178990 40.857071 -106.502246
v -11.465918 140.950159 -74.821289
v -65.000330 47.004471 -78.982758
v 5.499492 0.000000 -161.761841
v -79.047235 67.381531 -10.931650
v -76.063263 168.122803 -8.769459
v -93.104523 0.000000 -33.954980
v -24.587897 215.261890 1.912729
v 28.321875 88.939771 74.939508
v -17.797168 108.423657 76.564423
v -6.492835 171.054871 15.922668
v 42.889368 79.783881 -48.784317
v -22.995532 79.614056 -105.537476
v 53.557715 30.076236 1.393428
v 42.313342 85.676996 59.153058
vt 0.000000 0.500000
vt 0.500000 0.500000
vt 0.500000 0.725028
vt 1.000000 0.772422
vt 1.000000 1.000000
vt 0.500000 0.000000
vt 1.000000 0.000000
vt 0.000000 0.000000
vt 0.000000 0.770902
vt 0.500000 0.500000
vt 0.000000 1.000000
vt 0.500000 1.000000
vt 1.000000 1.000000
vt 1.000000 0.500000
vt 0.500000 0.235691
vt 0.000000 0.500000
vt 0.000000 0.000000
vt 0.000000 0.500000
vt 0.500000 0.500000
vt 0.500000 0.702975
vt 1.000000 0.500000
vt 0.500000 0.000000
vt 1.000000 0.000000
vt 0.000000 0.000000
vt 0.500000 0.500000
vt 0.500000 1.000000
vt 0.000000 1.000000
vt 1.000000 0.500000
vt 1.000000 1.000000
vt 0.500000 0.000000
vt 1.000000 0.000000
vt 0.000000 0.500000
vt 0.000000 0.000000
vt 0.500000 0.500000
vt 0.500000 1.000000
vt 1.000000 0.500000
vt 0.500000 0.181810
vt 0.500000 0.000000
vt 0.000000 0.000000
vt 1.000000 0.736512
vt 0.500000 0.000000
vt 0.500000 1.000000
vt 0.000000 1.000000
vt 1.000000 0.500000
vt 0.000000 0.500000
vt 1.000000 0.000000
vt 1.000000 1.000000
vt 0.000000 1.000000
vt 0.000000 0.736516
vt 1.000000 0.000000
vt 0.000000 0.772422
vn -0.693508 0.447528 0.564593
vn -0.693508 0.447528 0.564593
vn -0.693508 0.447528 0.564593
vn 0.370958 0.846161 0.382626
vn 0.370958 0.846161 0.382626
vn 0.370958 0.846161 0.382626
vn 0.347258 0.611955 0.710580
vn 0.347258 0.611955 0.710580
vn 0.347258 0.611955 0.710580
vn -0.649932 0.533418 0.541345
vn -0.649932 0.533418 0.541345
vn -0.649932 0.533418 0.541345
vn 0.884564 0.461846 0.065150
vn 0.884564 0.461846 0.065150
vn 0.884564 0.461846 0.065150
vn 0.928208 0.149645 -0.340640
vn 0.928208 0.149645 -0.340640
vn 0.928208 0.149645 -0.340640
vn 0.895984 -0.102772 -0.432031
vn 0.895984 -0.102772 -0.432031
vn 0.895984 -0.102772 -0.432031
vn 0.915657 0.273479 0.294588
vn 0.915657 0.273479 0.294588
vn 0.915657 0.273479 0.294588
vn 0.658870 0.151225 -0.736899
vn 0.658870 0.151225 -0.736899
vn 0.658870 0.151225 -0.736899
vn -0.489338 -0.077066 -0.868683
vn -0.489338 -0.077066 -0.868683
vn -0.489337 -0.077066 -0.868683
vn -0.244638 0.733641 -0.633974
vn -0.244638 0.733641 -0.633974
vn -0.244638 0.733641 -0.633974
vn 0.425300 0.730382 -0.534473
vn 0.425300 0.730382 -0.534473
vn 0.425300 0.730382 -0.534473
vn -0.781036 0.036515 -0.623418
vn -0.781035 0.036515 -0.623418
vn -0.781036 0.036515 -0.623418
vn -0.899020 0.388500 0.202068
vn -0.899020 0.388500 0.202068
vn -0.899020 0.388500 0.202068
vn -0.975704 0.148517 0.161074
vn -0.975704 0.148517 0.161074
vn -0.975704 0.148517 0.161074
vn -0.979864 -0.101760 -0.171790
vn -0.979864 -0.101760 -0.171790
vn -0.979864 -0.101760 -0.171790
vn -0.691367 0.456332 -0.560154
vn -0.691367 0.456332 -0.560154
vn -0.691367 0.456332 -0.560154
vn 0.413691 0.728972 -0.545399
vn 0.413691 0.728972 -0.545399
vn 0.413691 0.728972 -0.545399
vn 0.142485 0.351553 0.925261
vn 0.142485 0.351553 0.925261
vn 0.142485 0.351553 0.925261
vn 0.149393 0.818464 0.554796
vn 0.149393 0.818464 0.554796
vn 0.149393 0.818464 0.554796
vn 0.942421 0.275946 -0.188934
vn 0.942421 0.275946 -0.188934
vn 0.942421 0.275946 -0.188934
vn 0.715823 0.103481 0.690571
vn 0.715823 0.103481 0.690571
vn 0.715823 0.103481 0.690571
vn 0.992607 -0.083192 0.088376
vn 0.992607 -0.083192 0.088376
vn 0.992607 -0.083192 0.088376
vn -0.354240 0.328733 0.875471
vn -0.354240 0.328733 0.875471
vn -0.354240 0.328733 0.875471
vn -0.091912 0.758916 0.644670
vn -0.091912 0.758916 0.644670
vn -0.091912 0.758916 0.644670
vn -0.542799 0.429128 0.721955
vn -0.542799 0.429128 0.721955
vn -0.542799 0.429128 0.721955
vn 0.723541 0.100586 0.682914
vn 0.723541 0.100586 0.682914
vn 0.723541 0.100586 0.682914
vn -0.692264 0.422943 -0.584713
vn -0.692264 0.422943 -0.584713
vn -0.692264 0.422943 -0.584713
vn 0.412479 -0.021123 -0.910722
vn 0.412479 -0.021123 -0.910722
vn 0.412479 -0.021123 -0.910722
vn 0.736802 0.673570 0.058537
vn 0.736802 0.673570 0.058537
vn 0.736802 0.673570 0.058537
vn 0.722495 0.098843 0.684274
vn 0.722495 0.098843 0.684274
vn 0.722495 0.098843 0.684274
vn -0.377275 -0.139673 0.915508
vn -0.377275 -0.139673 0.915508
vn -0.377275 -0.139673 0.915508
vn -0.722183 0.546613 0.423870
vn -0.722183 0.546613 0.423870
vn -0.722183 0.546613 0.423870
vn 0.689771 0.519920 0.503883
vn 0.689771 0.519920 0.503883
vn 0.689771 0.519920 0.503883
vn 0.647234 0.126306 -0.751754
vn 0.647234 0.126306 -0.751754
vn 0.647234 0.126306 -0.751754
vn -0.255254 0.736354 -0.626601
vn -0.255254 0.736354 -0.626601
vn -0.255254 0.736354 -0.626601
vn 0.452198 0.789675 -0.414644
vn 0.452198 0.789675 -0.414644
vn 0.452198 0.789675 -0.414644
vn -0.902186 0.325046 -0.283558
vn -0.902186 0.325046 -0.283558
vn -0.902186 0.325046 -0.283558
vn -0.614034 0.001248 0.789279
vn -0.614034 0.001248 0.789279
vn -0.614034 0.001248 0.789279
vn -0.943754 0.251653 0.214472
vn -0.943754 0.251653 0.214472
vn -0.943754 0.251653 0.214472
vn -0.880344 0.307162 -0.361449
vn -0.880344 0.307162 -0.361449
vn -0.880344 0.307162 -0.361449
vn -0.268009 0.481730 -0.834331
vn -0.268009 0.481730 -0.834331
vn -0.268009 0.481730 -0.834331
vn 0.257265 0.715789 -0.649200
vn 0.257265 0.715789 -0.649200
vn 0.257265 0.715789 -0.649200
vn 0.870424 -0.330981 -0.364437
vn 0.870424 -0.330981 -0.364437
vn 0.870424 -0.330981 -0.364437
vn 0.986363 -0.148695 0.070550
vn 0.986363 -0.148695 0.070550
vn 0.986363 -0.148695 0.070550
vn 0.183010 0.356790 0.916083
vn 0.183010 0.356790 0.916083
vn 0.183010 0.356790 0.916083
vn 0.405369 0.422792 0.810508
vn 0.405369 0.422792 0.810508
vn 0.405369 0.422792 0.810508
vn -0.031661 0.801565 0.597069
vn -0.031661 0.801565 0.597069
vn -0.031661 0.801565 0.597069
vn -0.694959 0.419799 -0.583781
vn -0.694959 0.419799 -0.583781
vn -0.694959 0.419799 -0.583781
vn 0.631742 0.248893 -0.734135
vn 0.631742 0.248893 -0.734135
vn 0.631742 0.248893 -0.734135
vn 0.906153 -0.020351 -0.422460
vn 0.906153 -0.020351 -0.422460
vn 0.906153 -0.020351 -0.422460
vn -0.711188 0.623791 0.324185
vn -0.711188 0.623791 0.324185
vn -0.711188 0.623791 0.324185
vn 0.570873 0.741409 0.352727
vn 0.570873 0.741409 0.352727
vn 0.570873 0.741409 0.352727
vn 0.959656 -0.010833 0.280969
vn 0.959656 -0.010833 0.280969
vn 0.959656 -0.010833 0.280969
s off
g initialShadingGroup rock_03
f 10/1/1 9/2/2 27/3/3
f 27/3/4 26/4/5 4/5/6
f 9/2/7 13/6/8 3/7/9
f 9/2/10 10/1/11 1/8/12
f 32/9/13 14/10/14 4/11/15
f 15/12/16 14/10/17 6/13/18
f 16/14/19 14/10/20 31/15/21
f 14/10/22 12/16/23 3/17/24
f 16/18/25 18/19/26 30/20/27
f 30/20/28 18/19/29 20/21/30
f 18/19/31 21/22/32 7/23/33
f 18/19/34 16/18/35 5/24/36
f 22/25/37 23/26/38 8/27/39
f 22/25/40 10/28/41 2/29/42
f 22/25/43 24/30/44 1/31/45
f 22/25/46 20/32/47 7/33/48
f 25/34/49 19/35/50 8/27/51
f 25/34/52 15/36/53 6/13/54
f 15/36/55 25/34/56 28/37/57
f 11/38/58 28/37/59 2/39/60
f 29/40/61 6/13/62 14/10/63
f 14/10/64 15/12/65 4/11/66
f 3/17/67 17/41/68 31/15/69
f 11/42/70 2/43/71 10/1/72
f 9/2/73 12/44/74 26/4/75
f 25/34/76 23/45/77 2/39/78
f 11/38/79 4/46/80 15/36/81
f 8/47/82 19/35/83 30/20/84
f 19/35/85 6/48/86 29/49/87
f 17/41/88 5/50/89 16/14/90
f 11/42/91 27/3/92 4/5/93
f 12/44/94 9/2/95 3/7/96
f 13/6/97 9/2/98 1/8/99
f 26/51/100 12/16/101 32/9/102
f 29/49/103 16/18/104 30/20/105
f 20/21/106 18/19/107 7/23/108
f 21/22/109 18/19/110 5/24/111
f 20/32/112 22/25/113 8/27/114
f 23/26/115 22/25/116 2/29/117
f 10/28/118 22/25/119 1/31/120
f 24/30/121 22/25/122 7/33/123
f 23/45/124 25/34/125 8/27/126
f 19/35/127 25/34/128 6/13/129
f 14/10/130 16/14/131 29/40/132
f 14/10/133 3/17/134 31/15/135
f 27/3/136 9/2/137 26/4/138
f 28/37/139 25/34/140 2/39/141
f 28/37/142 11/38/143 15/36/144
f 20/21/145 8/47/146 30/20/147
f 30/20/148 19/35/149 29/49/150
f 31/15/151 17/41/152 16/14/153
f 11/42/154 10/1/155 27/3/156
f 32/9/157 4/11/158 26/51/159
f 32/9/160 12/16/161 14/10/162
