# This file uses centimeters as units for non-parametric coordinates.

mtllib rock_02.mtl
g default
v -76.886926 -7.202204 73.281317
v -28.136441 101.151276 14.631783
v 80.384460 -2.581808 79.497772
v 39.299686 90.450732 16.222408
v 78.324323 -0.904314 -99.786548
v 39.965588 95.921356 -45.948236
v -57.316547 2.497897 -67.882501
v -48.947116 134.099451 -59.838812
v -19.583839 79.244330 71.798712
v -57.601239 76.127625 69.623920
v 11.887796 112.097632 34.921420
v 49.582327 64.224646 35.972687
v -9.331902 8.452860 140.781873
v 58.016669 69.010168 -35.234235
v 44.212228 121.101392 -18.798019
v 43.204352 68.459100 -60.882874
v 113.668091 -1.440172 -16.399852
v 1.162175 69.998804 -82.703088
v -5.181567 135.660608 -67.536420
v -48.251822 71.686450 -79.414502
v 0.405060 3.703965 -149.576965
v -53.448352 47.482025 -46.256503
v -42.942728 89.394928 -31.784818
v -74.525647 3.147206 0.972353
v -10.580441 148.129749 -23.849901
v -60.221143 32.719873 84.471667
v -49.357080 1.061838 105.916516
v -50.065845 83.421704 -51.776056
v -53.266650 52.586835 -39.374576
v -2.084855 94.708105 -69.999536
v -46.216077 57.202734 -49.340152
v -75.423151 -5.207309 55.382996
v -71.456812 6.685992 76.099146
v 57.005194 54.674933 46.009726
v 5.358550 49.691806 97.107666
v -53.401709 23.382147 107.551086
v 112.661243 -1.561981 -14.922124
v 45.787076 99.329968 0.043498
v -6.804421 139.212598 9.841470
v 42.454398 67.415173 9.553671
v -7.517711 8.316473 139.993835
v 62.136859 27.247433 65.479559
v 45.217047 44.192538 -74.052563
v 88.187317 37.941840 -14.636610
v -6.878492 49.493893 -128.612366
v 96.632709 32.814111 -0.197630
vt 0.500000 0.500000
vt 0.500000 1.000000
vt 0.000000 1.000000
vt 1.000000 0.500000
vt 1.000000 1.000000
vt 0.500000 0.348979
vt 0.067104 0.126177
vt 0.000000 0.196622
vt 0.000000 0.074755
vt 0.309669 0.500000
vt 0.247481 1.000000
vt 0.000000 1.000000
vt 0.500000 0.500000
vt 1.000000 0.500000
vt 1.000000 1.000000
vt 0.500000 0.280087
vt 0.500000 0.000000
vt 1.000000 0.000000
vt 0.500000 0.000000
vt 0.500000 0.297871
vt 0.000000 0.000000
vt 0.500000 0.725284
vt 0.500000 1.000000
vt 0.000000 1.000000
vt 1.000000 0.765465
vt 1.000000 1.000000
vt 0.500000 0.298665
vt 0.500000 0.000000
vt 1.000000 0.000000
vt 0.000000 0.314137
vt 0.000000 0.000000
vt 0.000000 0.765465
vt 0.500000 1.000000
vt 0.000000 1.000000
vt 0.500000 0.651598
vt 0.500000 0.500000
vt 0.630438 0.500000
vt 1.000000 0.196622
vt 1.000000 0.500000
vt 0.000000 0.500000
vt 0.000000 0.000000
vt 0.500000 0.500000
vt 1.000000 0.500000
vt 0.000000 0.500000
vt 0.000000 0.500000
vt 0.187298 0.000000
vt 0.500000 0.000000
vt 0.500000 0.500000
vt 1.000000 0.500000
vt 1.000000 1.000000
vt 0.880902 0.000000
vt 1.000000 0.000000
vt 1.000000 0.074755
vt 0.509531 0.000000
vt 1.000000 0.000000
vt 1.000000 0.228281
vt 0.000000 0.000000
vt 0.000000 0.500000
vt 0.500000 0.000000
vt 0.500000 1.000000
vt 1.000000 0.000000
vt 1.000000 0.247481
vt 0.000000 0.228281
vt 0.000000 0.000000
vt 0.491709 0.000000
vt 0.000000 0.500000
vt 0.000000 0.429649
vt 0.393509 0.269723
vt 1.000000 0.429649
vt 1.000000 0.314137
vn -0.417914 0.825686 0.378934
vn -0.417914 0.825686 0.378934
vn -0.417914 0.825686 0.378934
vn 0.457843 0.642362 0.614614
vn 0.457843 0.642362 0.614614
vn 0.457843 0.642362 0.614614
vn 0.418014 0.768149 0.484985
vn 0.418014 0.768149 0.484985
vn 0.418014 0.768149 0.484985
vn -0.890265 0.265124 0.370320
vn -0.890265 0.265124 0.370320
vn -0.890265 0.265124 0.370320
vn 0.924844 0.016653 0.379982
vn 0.924844 0.016653 0.379982
vn 0.924844 0.016653 0.379982
vn 0.806999 0.352744 -0.473628
vn 0.806999 0.352744 -0.473628
vn 0.806999 0.352744 -0.473628
vn 0.785836 0.523210 -0.329717
vn 0.785836 0.523210 -0.329717
vn 0.785836 0.523210 -0.329717
vn -0.498765 0.377722 0.780103
vn -0.498765 0.377722 0.780103
vn -0.498765 0.377722 0.780103
vn 0.492562 0.089313 -0.865682
vn 0.492562 0.089313 -0.865682
vn 0.492562 0.089313 -0.865682
vn -0.322146 -0.141806 -0.936009
vn -0.322146 -0.141806 -0.936009
vn -0.322146 -0.141806 -0.936009
vn -0.810443 0.132364 -0.570668
vn -0.810443 0.132364 -0.570668
vn -0.810443 0.132364 -0.570668
vn 0.561727 0.680707 -0.470214
vn 0.561727 0.680707 -0.470214
vn 0.561727 0.680707 -0.470214
vn -0.946134 0.071139 0.315863
vn -0.946134 0.071139 0.315863
vn -0.946134 0.071139 0.315863
vn -0.802724 0.488912 -0.341466
vn -0.802724 0.488912 -0.341466
vn -0.802724 0.488912 -0.341466
vn -0.997850 0.043443 -0.049065
vn -0.997850 0.043443 -0.049065
vn -0.997850 0.043443 -0.049065
vn -0.990585 0.118299 -0.068890
vn -0.990585 0.118299 -0.068890
vn -0.990585 0.118299 -0.068890
vn -0.083867 0.955427 -0.283065
vn -0.083867 0.955427 -0.283065
vn -0.083867 0.955427 -0.283065
vn 0.380360 0.647683 -0.660177
vn 0.380360 0.647683 -0.660177
vn 0.380360 0.647683 -0.660177
vn 0.420537 0.887626 0.187798
vn 0.420537 0.887626 0.187798
vn 0.420537 0.887626 0.187798
vn -0.854912 0.497607 0.146672
vn -0.854912 0.497607 0.146672
vn -0.854912 0.497607 0.146672
vn 0.427913 0.470226 -0.771867
vn 0.427913 0.470226 -0.771867
vn 0.427913 0.470226 -0.771867
vn 0.612301 0.753449 0.239586
vn 0.612301 0.753449 0.239586
vn 0.612301 0.753449 0.239586
vn -0.541116 0.694680 0.473933
vn -0.541116 0.694681 0.473933
vn -0.541116 0.694681 0.473933
vn 0.005451 0.920579 -0.390519
vn 0.005451 0.920579 -0.390519
vn 0.005451 0.920579 -0.390519
vn -0.695188 0.628112 0.349555
vn -0.695188 0.628112 0.349555
vn -0.695188 0.628112 0.349555
vn -0.945013 0.214080 0.247225
vn -0.945013 0.214080 0.247225
vn -0.945013 0.214080 0.247225
vn -0.836407 0.325523 -0.440974
vn -0.836407 0.325523 -0.440974
vn -0.836407 0.325523 -0.440974
vn -0.928376 0.370021 -0.034684
vn -0.928376 0.370021 -0.034684
vn -0.928376 0.370021 -0.034684
vn 0.502697 0.599987 0.622344
vn 0.502697 0.599987 0.622344
vn 0.502697 0.599987 0.622344
vn -0.728823 -0.180439 0.660499
vn -0.728823 -0.180439 0.660499
vn -0.728823 -0.180439 0.660499
vn -0.112934 0.574124 0.810942
vn -0.112934 0.574124 0.810942
vn -0.112934 0.574124 0.810942
vn -0.923338 0.172989 0.342815
vn -0.923338 0.172989 0.342815
vn -0.923338 0.172989 0.342815
vn -0.908830 0.412418 -0.062766
vn -0.908830 0.412418 -0.062766
vn -0.908830 0.412418 -0.062766
vn -0.948164 0.266696 -0.172793
vn -0.948164 0.266696 -0.172793
vn -0.948164 0.266696 -0.172793
vn -0.937220 0.346687 0.037773
vn -0.937220 0.346687 0.037773
vn -0.937220 0.346687 0.037773
vn 0.965739 0.206212 0.157558
vn 0.965739 0.206212 0.157558
vn 0.965739 0.206212 0.157558
vn 0.717542 0.447806 0.533482
vn 0.717542 0.447806 0.533482
vn 0.717542 0.447806 0.533482
vn 0.761312 0.591025 0.266633
vn 0.761312 0.591025 0.266633
vn 0.761312 0.591025 0.266633
vn 0.003996 0.912798 -0.408392
vn 0.003996 0.912798 -0.408392
vn 0.003996 0.912798 -0.408392
vn 0.770502 0.446868 -0.454572
vn 0.770502 0.446868 -0.454572
vn 0.770502 0.446868 -0.454572
vn 0.422418 0.459161 -0.781495
vn 0.422418 0.459161 -0.781495
vn 0.422418 0.459161 -0.781495
vn 0.722989 0.444092 0.529215
vn 0.722989 0.444092 0.529215
vn 0.722989 0.444092 0.529215
vn 0.563753 0.503330 0.654860
vn 0.563753 0.503330 0.654860
vn 0.563753 0.503330 0.654860
vn 0.351670 0.618719 0.702507
vn 0.351670 0.618719 0.702507
vn 0.351670 0.618719 0.702507
vn 0.857370 0.484837 -0.172769
vn 0.857370 0.484837 -0.172769
vn 0.857370 0.484837 -0.172769
vn 0.770043 0.458785 0.443338
vn 0.770044 0.458785 0.443338
vn 0.770043 0.458785 0.443338
vn -0.096883 0.924463 0.368758
vn -0.096883 0.924463 0.368758
vn -0.096883 0.924463 0.368758
vn 0.653251 0.195331 0.731511
vn 0.653251 0.195331 0.731511
vn 0.653251 0.195331 0.731511
vn 0.387293 0.793831 0.468868
vn 0.387293 0.793831 0.468868
vn 0.387293 0.793831 0.468868
vn 0.952139 0.197847 -0.232997
vn 0.952139 0.197847 -0.232997
vn 0.952139 0.197847 -0.232997
vn 0.810903 0.360368 -0.461054
vn 0.810903 0.360368 -0.461054
vn 0.810903 0.360368 -0.461054
vn 0.627230 0.678588 -0.382231
vn 0.627230 0.678588 -0.382231
vn 0.627230 0.678588 -0.382231
vn -0.174631 0.045952 -0.983561
vn -0.174631 0.045952 -0.983561
vn -0.174631 0.045952 -0.983561
vn -0.766776 -0.006527 -0.641882
vn -0.766776 -0.006527 -0.641882
vn -0.766776 -0.006527 -0.641882
vn 0.505249 0.424394 -0.751408
vn 0.505249 0.424394 -0.751408
vn 0.505249 0.424394 -0.751408
vn -0.926937 -0.102571 0.360926
vn -0.926937 -0.102571 0.360926
vn -0.926937 -0.102571 0.360926
vn -0.950731 0.196881 -0.239476
vn -0.950731 0.196881 -0.239476
vn -0.950731 0.196881 -0.239476
vn -0.708522 0.304376 0.636673
vn -0.708522 0.304376 0.636673
vn -0.708522 0.304376 0.636673
vn 0.687561 0.716232 -0.119459
vn 0.687561 0.716232 -0.119459
vn 0.687561 0.716233 -0.119459
vn 0.546664 0.570218 0.613196
vn 0.546664 0.570218 0.613196
vn 0.546664 0.570218 0.613196
vn -0.867223 0.448658 0.215943
vn -0.867223 0.448658 0.215943
vn -0.867223 0.448658 0.215943
vn 0.422725 0.457690 -0.782191
vn 0.422725 0.457690 -0.782191
vn 0.422725 0.457690 -0.782191
vn 0.536395 0.843850 -0.014062
vn 0.536395 0.843850 -0.014062
vn 0.536395 0.843850 -0.014062
vn 0.190998 -0.037222 0.980884
vn 0.190998 -0.037222 0.980884
vn 0.190998 -0.037222 0.980884
vn -0.404956 0.375413 -0.833712
vn -0.404956 0.375413 -0.833712
vn -0.404956 0.375413 -0.833712
vn -0.989345 -0.145558 -0.003131
vn -0.989345 -0.145558 -0.003131
vn -0.989345 -0.145558 -0.003131
vn -0.793994 0.586943 -0.158339
vn -0.793994 0.586943 -0.158339
vn -0.793994 0.586943 -0.158339
vn -0.889687 0.273714 0.365428
vn -0.889687 0.273714 0.365428
vn -0.889687 0.273714 0.365429
vn -0.094642 0.600265 0.794182
vn -0.094642 0.600265 0.794182
vn -0.094642 0.600265 0.794182
vn -0.914542 0.404266 0.013495
vn -0.914542 0.404266 0.013495
vn -0.914542 0.404266 0.013495
vn 0.944611 -0.000844 0.328190
vn 0.944611 -0.000844 0.328190
vn 0.944611 -0.000844 0.328190
vn 0.608921 0.722541 0.327337
vn 0.608921 0.722541 0.327337
vn 0.608921 0.722541 0.327337
vn 0.860279 0.200308 0.468825
vn 0.860279 0.200308 0.468825
vn 0.860279 0.200308 0.468825
vn 0.776357 0.349171 -0.524737
vn 0.776357 0.349171 -0.524737
vn 0.776357 0.349171 -0.524737
vn 0.518423 0.743298 -0.422784
vn 0.518423 0.743298 -0.422784
vn 0.518423 0.743298 -0.422784
vn 0.811228 0.504716 -0.295248
vn 0.811228 0.504716 -0.295248
vn 0.811228 0.504716 -0.295248
vn 0.561950 0.546140 0.621244
vn 0.561950 0.546140 0.621244
vn 0.561950 0.546140 0.621244
vn 0.546165 0.834437 0.073617
vn 0.546165 0.834437 0.073617
vn 0.546165 0.834437 0.073617
s off
g initialShadingGroup rock_02
f 9/1/1 11/2/2 2/3/3
f 9/1/4 12/4/5 4/5/6
f 12/4/7 9/1/8 35/6/9
f 36/7/10 26/8/11 33/9/12
f 40/10/13 38/11/14 4/12/15
f 14/13/16 16/14/17 6/15/18
f 44/16/19 17/17/20 5/18/21
f 11/19/22 39/20/23 2/21/24
f 30/22/25 19/23/26 6/24/27
f 30/22/28 28/25/29 8/26/30
f 45/27/31 21/28/32 7/29/33
f 45/27/34 43/30/35 5/31/36
f 28/32/37 23/33/38 8/34/39
f 31/35/40 22/36/41 29/37/42
f 26/38/43 10/39/44 29/37/45
f 22/36/46 20/40/47 7/41/48
f 25/42/49 19/23/50 8/34/51
f 25/42/52 15/43/53 6/15/54
f 15/43/55 25/42/56 39/20/57
f 23/44/58 2/21/59 39/20/60
f 30/22/61 6/24/62 16/45/63
f 44/16/64 14/13/65 40/10/66
f 27/46/67 13/47/68 35/6/69
f 18/48/70 20/49/71 28/25/72
f 20/40/73 22/36/74 31/35/75
f 2/50/76 23/33/77 29/37/78
f 29/37/79 23/33/80 31/35/81
f 32/51/82 1/52/83 33/53/84
f 41/54/85 3/55/86 42/56/87
f 1/57/88 27/46/89 36/7/90
f 10/58/91 36/7/92 35/6/93
f 10/58/94 26/8/95 36/7/96
f 33/53/97 26/38/98 32/51/99
f 29/37/100 22/36/101 24/59/102
f 24/59/103 32/51/104 26/38/105
f 14/13/106 15/60/107 38/11/108
f 11/19/109 4/61/110 38/62/111
f 42/63/112 3/64/113 37/65/114
f 20/49/115 18/48/116 45/27/117
f 16/14/118 14/13/119 44/16/120
f 18/48/121 16/45/122 43/30/123
f 37/65/124 17/17/125 44/16/126
f 35/6/127 41/54/128 42/56/129
f 35/6/130 13/47/131 41/54/132
f 40/10/133 12/66/134 34/67/135
f 34/67/136 42/63/137 46/68/138
f 10/58/139 9/1/140 2/3/141
f 11/2/142 9/1/143 4/5/144
f 34/69/145 12/4/146 35/6/147
f 12/66/148 40/10/149 4/12/150
f 15/60/151 14/13/152 6/15/153
f 43/70/154 44/16/155 5/18/156
f 19/23/157 30/22/158 8/26/159
f 20/49/160 45/27/161 7/29/162
f 21/28/163 45/27/164 5/31/165
f 28/32/166 31/35/167 23/33/168
f 24/59/169 22/36/170 7/41/171
f 23/44/172 25/42/173 8/34/174
f 19/23/175 25/42/176 6/15/177
f 38/62/178 15/43/179 39/20/180
f 25/42/181 23/44/182 39/20/183
f 18/48/184 30/22/185 16/45/186
f 46/68/187 44/16/188 40/10/189
f 36/7/190 27/46/191 35/6/192
f 30/22/193 18/48/194 28/25/195
f 28/32/196 20/40/197 31/35/198
f 10/39/199 2/50/200 29/37/201
f 33/9/202 1/57/203 36/7/204
f 9/1/205 10/58/206 35/6/207
f 29/37/208 24/59/209 26/38/210
f 40/10/211 14/13/212 38/11/213
f 39/20/214 11/19/215 38/62/216
f 46/68/217 42/63/218 37/65/219
f 43/70/220 16/14/221 44/16/222
f 45/27/223 18/48/224 43/30/225
f 46/68/226 37/65/227 44/16/228
f 34/69/229 35/6/230 42/56/231
f 40/10/232 34/67/233 46/68/234
